<?xml version="1.0" standalone="no"?>
<!DOCTYPE svg PUBLIC "-//W3C//DTD SVG 20010904//EN"
 "http://www.w3.org/TR/2001/REC-SVG-20010904/DTD/svg10.dtd">
<svg version="1.0" xmlns="http://www.w3.org/2000/svg"
 width="736.000000pt" height="736.000000pt" viewBox="0 0 736.000000 736.000000"
 preserveAspectRatio="xMidYMid meet">
<metadata>
Created by potrace 1.14, written by Peter Selinger 2001-2017
</metadata>
<g transform="translate(0.000000,736.000000) scale(0.100000,-0.100000)"
fill="#000000" stroke="none">
<path d="M339 6453 c-35 -14 -72 -33 -81 -41 -10 -8 -36 -15 -58 -15 -37 0
-39 -1 -38 -31 0 -29 -9 -59 -31 -96 -37 -64 -43 -87 -46 -165 -6 -119 29
-221 99 -291 11 -12 496 -497 1076 -1078 l1054 -1056 -1078 -1078 c-592 -593
-1084 -1089 -1091 -1103 -8 -13 -17 -31 -21 -39 -3 -8 -13 -30 -21 -49 -9 -19
-17 -70 -19 -113 -6 -145 45 -247 172 -348 11 -9 46 -27 79 -40 112 -46 264
-31 365 37 49 32 2453 2436 2499 2498 58 78 78 145 76 245 -1 69 -7 97 -30
150 -27 62 -85 121 -1264 1304 -682 683 -1258 1253 -1286 1271 -69 45 -117 58
-211 61 -67 1 -93 -3 -145 -23z m201 -222 c19 -1 2466 -2447 2484 -2482 11
-22 14 -67 7 -129 -2 -21 -2450 -2467 -2486 -2484 -66 -32 -158 -4 -201 61
-25 37 -25 129 -1 163 9 14 533 541 1164 1173 l1147 1147 -1141 1143 c-628
628 -1151 1152 -1161 1165 -41 48 -39 132 5 191 39 51 80 63 183 52z"/>
<path d="M3386 1682 c-2 -1 -43 -3 -92 -4 -49 0 -109 -8 -134 -16 -93 -31
-173 -98 -232 -193 -52 -83 -59 -232 -17 -340 46 -120 179 -224 309 -244 48
-7 3686 -6 3730 1 57 9 132 45 183 87 100 83 149 193 143 324 -2 43 -9 92 -16
108 -22 60 -35 85 -42 85 -5 0 -8 5 -8 11 0 16 -47 69 -54 62 -3 -4 -6 -1 -6
5 0 18 -99 78 -157 95 -35 11 -102 16 -219 17 -328 2 -3386 5 -3388 2z m-32
-242 c19 4 40 4 47 -1 7 -4 20 -4 29 1 9 5 22 5 29 1 7 -5 29 -5 50 -1 20 4
46 4 57 0 10 -4 31 -4 47 1 15 4 27 4 27 -1 0 -4 16 -4 35 0 19 4 35 4 35 0 0
-5 13 -5 29 0 16 4 32 6 35 3 7 -7 115 -7 122 0 4 3 16 2 29 -3 13 -5 25 -6
28 -3 3 3 27 5 54 4 26 -1 56 -1 66 -1 9 0 24 0 32 0 8 0 22 0 30 0 8 0 22 0
30 0 8 0 22 0 30 0 8 0 21 0 28 0 6 1 42 0 80 -1 37 -1 70 1 73 4 3 3 18 2 33
-3 16 -4 34 -4 41 0 6 4 27 4 46 0 19 -4 36 -4 39 1 3 4 16 4 29 -1 13 -5 26
-6 29 -3 3 3 27 5 54 4 26 -1 56 -1 66 -1 9 0 24 0 32 0 8 0 22 0 30 0 8 0 22
0 30 0 8 0 22 0 30 0 8 0 21 0 28 0 6 1 42 0 80 -1 37 -1 70 1 73 4 3 3 18 2
33 -3 16 -4 34 -4 41 0 6 4 27 4 46 0 19 -4 36 -4 39 1 3 4 16 4 29 -1 13 -5
26 -6 29 -3 3 3 27 5 54 4 26 -1 56 -1 66 -1 9 0 24 0 32 0 8 0 22 0 30 0 8 0
22 0 30 0 8 0 22 0 30 0 8 0 21 0 28 0 6 1 42 0 80 -1 37 -1 70 1 73 4 3 3 18
2 33 -3 16 -4 34 -4 41 0 6 4 27 4 46 0 19 -4 36 -4 39 1 3 4 16 4 29 -1 13
-5 26 -6 29 -3 3 3 27 5 54 4 26 -1 56 -1 66 -1 9 0 24 0 32 0 8 0 22 0 30 0
8 0 22 0 30 0 8 0 22 0 30 0 8 0 21 0 28 0 6 1 42 0 80 -1 37 -1 70 1 73 4 3
3 18 2 33 -3 16 -4 33 -5 40 -1 12 8 80 5 88 -3 3 -2 18 0 34 4 16 5 29 5 29
0 0 -4 15 -4 34 0 19 4 40 4 47 -1 7 -4 20 -4 29 1 9 5 22 5 29 1 7 -5 29 -5
50 -1 20 4 46 4 57 0 10 -4 31 -4 47 1 15 4 27 4 27 0 0 -4 12 -6 28 -4 80 12
163 -59 167 -144 4 -61 -14 -103 -57 -136 -35 -27 -137 -50 -159 -36 -7 4 -20
4 -29 -1 -9 -5 -22 -5 -30 0 -8 5 -21 5 -30 0 -9 -5 -22 -5 -30 0 -8 5 -21 5
-31 0 -9 -5 -19 -7 -22 -4 -7 7 -136 8 -143 1 -3 -3 -18 -2 -33 3 -16 4 -33 5
-40 1 -12 -8 -80 -5 -88 3 -3 2 -18 0 -34 -4 -16 -5 -29 -5 -29 0 0 4 -15 4
-34 0 -19 -4 -40 -4 -47 1 -7 4 -20 4 -29 -1 -9 -5 -22 -5 -29 -1 -7 5 -29 5
-50 1 -20 -4 -46 -4 -57 0 -10 4 -31 4 -46 -1 -16 -4 -28 -4 -28 1 0 4 -16 4
-35 0 -19 -4 -35 -4 -35 0 0 5 -13 5 -30 0 -16 -5 -32 -5 -35 -1 -2 4 -24 5
-48 1 -24 -3 -52 -3 -63 0 -10 4 -31 4 -46 -1 -16 -4 -28 -4 -28 1 0 4 -15 4
-34 0 -19 -4 -40 -4 -47 1 -7 4 -20 4 -29 -1 -9 -5 -22 -5 -29 -1 -7 5 -29 5
-50 1 -20 -4 -46 -4 -57 0 -10 4 -31 4 -46 -1 -16 -4 -28 -4 -28 1 0 4 -16 4
-35 0 -19 -4 -35 -4 -35 0 0 5 -13 5 -30 0 -16 -5 -32 -5 -35 -1 -2 4 -24 5
-48 1 -24 -3 -52 -3 -63 0 -10 4 -31 4 -46 -1 -16 -4 -28 -4 -28 1 0 4 -15 4
-34 0 -19 -4 -40 -4 -47 1 -7 4 -20 4 -29 -1 -9 -5 -22 -5 -29 -1 -7 5 -29 5
-50 1 -20 -4 -46 -4 -57 0 -10 4 -31 4 -46 -1 -16 -4 -28 -4 -28 1 0 4 -16 4
-35 0 -19 -4 -35 -4 -35 0 0 5 -13 5 -30 0 -16 -5 -32 -5 -35 -1 -2 4 -24 5
-48 1 -24 -3 -52 -3 -63 0 -10 4 -31 4 -46 -1 -16 -4 -28 -4 -28 1 0 4 -15 4
-34 0 -19 -4 -40 -4 -47 1 -7 4 -20 4 -29 -1 -9 -5 -22 -5 -29 -1 -7 5 -29 5
-50 1 -20 -4 -46 -4 -57 0 -10 4 -31 4 -46 -1 -16 -4 -28 -4 -28 1 0 4 -16 4
-35 0 -19 -4 -35 -4 -35 0 0 5 -13 5 -29 0 -16 -4 -32 -6 -35 -3 -7 7 -115 7
-122 0 -4 -3 -16 -2 -29 3 -13 5 -25 6 -28 3 -8 -7 -102 -8 -113 0 -6 3 -16 2
-24 -3 -8 -5 -21 -5 -30 0 -9 5 -22 5 -29 0 -8 -4 -27 -4 -42 0 -18 5 -29 5
-29 -1 0 -6 -5 -7 -11 -4 -5 4 -38 6 -72 6 -88 -2 -89 -2 -117 3 -14 2 -30 4
-36 5 -21 2 -83 62 -92 89 -17 50 -8 117 22 156 33 43 53 55 108 62 24 4 45 8
48 11 2 2 6 0 8 -5 2 -6 17 -7 36 -2z"/>
</g>
</svg>
